<?xml version="1.0" encoding="utf-8"?>
<!-- Generator: Adobe Illustrator 24.3.0, SVG Export Plug-In . SVG Version: 6.00 Build 0)  -->
<svg version="1.1" id="Layer_1" xmlns="http://www.w3.org/2000/svg" xmlns:xlink="http://www.w3.org/1999/xlink" x="0px" y="0px"  width="24px" height="24px"
	 viewBox="0 0 24 24" style="enable-background:new 0 0 24 24;" xml:space="preserve">
<style type="text/css">
	.st0{fill-rule:evenodd;clip-rule:evenodd;}
</style>
<g>
	<path class="st0" d="M14.7,16.2c-0.8,3.1-2.1,5-2.7,5.9c-0.6-0.8-1.9-2.8-2.7-5.9H14.7z M21.1,16.2c-1.3,2.8-3.9,5-7,5.6
		c1.1-1.7,1.9-3.7,2.3-5.6H21.1z M2.9,16.2h4.7c0.5,2,1.2,3.9,2.3,5.6C6.8,21.2,4.2,19,2.9,16.2z M15.1,14.5H8.9
		c-0.2-1.7-0.2-3.4,0-5h6.1C15.3,11.1,15.3,12.9,15.1,14.5z M7.3,14.5h-5C2,13.7,1.9,12.9,1.9,12c0-0.9,0.1-1.7,0.3-2.5h5
		C7,11.2,7,12.8,7.3,14.5z M21.7,14.5h-5c0.2-1.7,0.2-3.4,0-5h5c0.2,0.8,0.3,1.6,0.3,2.5C22.1,12.9,22,13.7,21.7,14.5z M14.7,7.8
		H9.3c0.8-3.1,2.1-5,2.7-5.9C13,3.4,14,5.1,14.7,7.8z M7.6,7.8H2.9c1.3-2.8,3.9-5,7-5.6C8.8,3.8,8,5.7,7.6,7.8z M21.1,7.8h-4.7
		c-0.5-2.1-1.3-4-2.3-5.6C17.2,2.8,19.8,5,21.1,7.8z"/>
	<path d="M0,0v24h24V0H0z M12,22.7C6.1,22.7,1.3,17.9,1.3,12S6.1,1.3,12,1.3c5.9,0,10.7,4.8,10.7,10.7S17.9,22.7,12,22.7z"/>
</g>
</svg>




